<mxfile host="app.diagrams.net" modified="2023-05-22T12:44:07.342Z" agent="Mozilla/5.0 (Windows NT 10.0; Win64; x64) AppleWebKit/537.36 (KHTML, like Gecko) Chrome/113.0.0.0 Safari/537.36 Edg/113.0.1774.50" etag="h-e-WRAiLGHrZj7wD_el" version="21.3.2" type="device">
  <diagram name="PÃ¡gina-1" id="SdfLxSpB5VajKidvtNAa">
    <mxGraphModel dx="1050" dy="581" grid="1" gridSize="10" guides="1" tooltips="1" connect="1" arrows="1" fold="1" page="1" pageScale="1" pageWidth="1300" pageHeight="2000" math="0" shadow="0">
      <root>
        <mxCell id="0" />
        <mxCell id="1" parent="0" />
        <mxCell id="-3C66Id-8g3njtLb4C6S-1" value="Estacion" style="rounded=1;whiteSpace=wrap;html=1;" parent="1" vertex="1">
          <mxGeometry x="90" y="390" width="100" height="60" as="geometry" />
        </mxCell>
        <mxCell id="-3C66Id-8g3njtLb4C6S-7" value="Trabajador" style="rounded=1;whiteSpace=wrap;html=1;" parent="1" vertex="1">
          <mxGeometry x="510" y="390" width="120" height="60" as="geometry" />
        </mxCell>
        <mxCell id="-3C66Id-8g3njtLb4C6S-11" value="&lt;font style=&quot;font-size: 10px;&quot;&gt;Es&amp;nbsp;&lt;br&gt;&lt;font style=&quot;font-size: 10px;&quot;&gt;responsable&lt;/font&gt;&lt;/font&gt;" style="rhombus;whiteSpace=wrap;html=1;" parent="1" vertex="1">
          <mxGeometry x="640" y="310" width="80" height="80" as="geometry" />
        </mxCell>
        <mxCell id="-3C66Id-8g3njtLb4C6S-12" value="" style="triangle;whiteSpace=wrap;html=1;rotation=-90;" parent="1" vertex="1">
          <mxGeometry x="540" y="340" width="40" height="60" as="geometry" />
        </mxCell>
        <mxCell id="-3C66Id-8g3njtLb4C6S-16" value="" style="endArrow=none;html=1;rounded=0;exitX=1;exitY=0.5;exitDx=0;exitDy=0;" parent="1" source="-3C66Id-8g3njtLb4C6S-12" edge="1">
          <mxGeometry width="50" height="50" relative="1" as="geometry">
            <mxPoint x="390" y="340" as="sourcePoint" />
            <mxPoint x="560" y="200" as="targetPoint" />
          </mxGeometry>
        </mxCell>
        <mxCell id="-3C66Id-8g3njtLb4C6S-17" value="" style="verticalLabelPosition=bottom;verticalAlign=top;html=1;shape=mxgraph.basic.arc;startAngle=0.8662212177054287;endAngle=0.1303387665525873;" parent="1" vertex="1">
          <mxGeometry x="525" y="290" width="70" height="100" as="geometry" />
        </mxCell>
        <mxCell id="-3C66Id-8g3njtLb4C6S-18" value="Administracion" style="rounded=1;whiteSpace=wrap;html=1;" parent="1" vertex="1">
          <mxGeometry x="294" y="80" width="86" height="30" as="geometry" />
        </mxCell>
        <mxCell id="-3C66Id-8g3njtLb4C6S-19" value="Interino" style="rounded=1;whiteSpace=wrap;html=1;" parent="1" vertex="1">
          <mxGeometry x="160" y="80" width="86" height="30" as="geometry" />
        </mxCell>
        <mxCell id="-3C66Id-8g3njtLb4C6S-20" value="Electricidad" style="rounded=1;whiteSpace=wrap;html=1;" parent="1" vertex="1">
          <mxGeometry x="424" y="80" width="86" height="30" as="geometry" />
        </mxCell>
        <mxCell id="-3C66Id-8g3njtLb4C6S-21" value="Motor" style="rounded=1;whiteSpace=wrap;html=1;" parent="1" vertex="1">
          <mxGeometry x="544" y="80" width="86" height="30" as="geometry" />
        </mxCell>
        <mxCell id="-3C66Id-8g3njtLb4C6S-22" value="Mecanico" style="rounded=1;whiteSpace=wrap;html=1;" parent="1" vertex="1">
          <mxGeometry x="680" y="80" width="86" height="30" as="geometry" />
        </mxCell>
        <mxCell id="-3C66Id-8g3njtLb4C6S-24" value="" style="endArrow=none;html=1;rounded=0;" parent="1" edge="1">
          <mxGeometry width="50" height="50" relative="1" as="geometry">
            <mxPoint x="200" y="200" as="sourcePoint" />
            <mxPoint x="720" y="200" as="targetPoint" />
          </mxGeometry>
        </mxCell>
        <mxCell id="-3C66Id-8g3njtLb4C6S-25" value="" style="endArrow=none;html=1;rounded=0;entryX=0.467;entryY=1.004;entryDx=0;entryDy=0;entryPerimeter=0;" parent="1" target="-3C66Id-8g3njtLb4C6S-19" edge="1">
          <mxGeometry width="50" height="50" relative="1" as="geometry">
            <mxPoint x="200" y="200" as="sourcePoint" />
            <mxPoint x="180" y="140" as="targetPoint" />
          </mxGeometry>
        </mxCell>
        <mxCell id="-3C66Id-8g3njtLb4C6S-26" value="" style="endArrow=none;html=1;rounded=0;" parent="1" edge="1">
          <mxGeometry width="50" height="50" relative="1" as="geometry">
            <mxPoint x="330" y="200" as="sourcePoint" />
            <mxPoint x="330" y="110" as="targetPoint" />
          </mxGeometry>
        </mxCell>
        <mxCell id="-3C66Id-8g3njtLb4C6S-27" value="" style="endArrow=none;html=1;rounded=0;entryX=0.5;entryY=1;entryDx=0;entryDy=0;" parent="1" target="-3C66Id-8g3njtLb4C6S-20" edge="1">
          <mxGeometry width="50" height="50" relative="1" as="geometry">
            <mxPoint x="467" y="200" as="sourcePoint" />
            <mxPoint x="510" y="120" as="targetPoint" />
          </mxGeometry>
        </mxCell>
        <mxCell id="-3C66Id-8g3njtLb4C6S-29" value="" style="endArrow=none;html=1;rounded=0;entryX=0.459;entryY=1.035;entryDx=0;entryDy=0;entryPerimeter=0;" parent="1" target="-3C66Id-8g3njtLb4C6S-22" edge="1">
          <mxGeometry width="50" height="50" relative="1" as="geometry">
            <mxPoint x="719" y="200" as="sourcePoint" />
            <mxPoint x="660" y="60" as="targetPoint" />
          </mxGeometry>
        </mxCell>
        <mxCell id="-3C66Id-8g3njtLb4C6S-30" value="" style="endArrow=none;html=1;rounded=0;entryX=0.428;entryY=1.026;entryDx=0;entryDy=0;entryPerimeter=0;" parent="1" target="-3C66Id-8g3njtLb4C6S-21" edge="1">
          <mxGeometry width="50" height="50" relative="1" as="geometry">
            <mxPoint x="580" y="200" as="sourcePoint" />
            <mxPoint x="720" y="110" as="targetPoint" />
          </mxGeometry>
        </mxCell>
        <mxCell id="-3C66Id-8g3njtLb4C6S-33" value="Trabaja" style="shape=rhombus;perimeter=rhombusPerimeter;whiteSpace=wrap;html=1;align=center;" parent="1" vertex="1">
          <mxGeometry x="293.5" y="390" width="120" height="60" as="geometry" />
        </mxCell>
        <mxCell id="F1NleT-dJt74H9rhN13T-1" value="" style="endArrow=none;html=1;rounded=0;exitX=1;exitY=0.5;exitDx=0;exitDy=0;entryX=0;entryY=0.5;entryDx=0;entryDy=0;" parent="1" source="-3C66Id-8g3njtLb4C6S-33" target="-3C66Id-8g3njtLb4C6S-7" edge="1">
          <mxGeometry relative="1" as="geometry">
            <mxPoint x="350" y="369.5" as="sourcePoint" />
            <mxPoint x="510" y="369.5" as="targetPoint" />
          </mxGeometry>
        </mxCell>
        <mxCell id="F1NleT-dJt74H9rhN13T-2" value="1,N" style="resizable=0;html=1;whiteSpace=wrap;align=right;verticalAlign=bottom;" parent="F1NleT-dJt74H9rhN13T-1" connectable="0" vertex="1">
          <mxGeometry x="1" relative="1" as="geometry">
            <mxPoint x="-10" as="offset" />
          </mxGeometry>
        </mxCell>
        <mxCell id="F1NleT-dJt74H9rhN13T-3" value="" style="endArrow=none;html=1;rounded=0;entryX=1;entryY=0.5;entryDx=0;entryDy=0;" parent="1" target="-3C66Id-8g3njtLb4C6S-1" edge="1">
          <mxGeometry relative="1" as="geometry">
            <mxPoint x="290" y="420" as="sourcePoint" />
            <mxPoint x="200" y="420" as="targetPoint" />
            <Array as="points" />
          </mxGeometry>
        </mxCell>
        <mxCell id="F1NleT-dJt74H9rhN13T-4" value="1,1" style="resizable=0;html=1;whiteSpace=wrap;align=right;verticalAlign=bottom;" parent="F1NleT-dJt74H9rhN13T-3" connectable="0" vertex="1">
          <mxGeometry x="1" relative="1" as="geometry">
            <mxPoint x="20" as="offset" />
          </mxGeometry>
        </mxCell>
        <mxCell id="F1NleT-dJt74H9rhN13T-6" value="" style="endArrow=none;html=1;rounded=0;entryX=0.5;entryY=1;entryDx=0;entryDy=0;" parent="1" target="-3C66Id-8g3njtLb4C6S-11" edge="1">
          <mxGeometry relative="1" as="geometry">
            <mxPoint x="630" y="430" as="sourcePoint" />
            <mxPoint x="710" y="410" as="targetPoint" />
            <Array as="points">
              <mxPoint x="680" y="430" />
            </Array>
          </mxGeometry>
        </mxCell>
        <mxCell id="F1NleT-dJt74H9rhN13T-7" value="1,0" style="resizable=0;html=1;whiteSpace=wrap;align=right;verticalAlign=bottom;" parent="F1NleT-dJt74H9rhN13T-6" connectable="0" vertex="1">
          <mxGeometry x="1" relative="1" as="geometry">
            <mxPoint x="20" y="20" as="offset" />
          </mxGeometry>
        </mxCell>
        <mxCell id="F1NleT-dJt74H9rhN13T-11" value="" style="endArrow=none;html=1;rounded=0;entryX=0;entryY=0.5;entryDx=0;entryDy=0;" parent="1" target="-3C66Id-8g3njtLb4C6S-11" edge="1">
          <mxGeometry relative="1" as="geometry">
            <mxPoint x="610" y="390" as="sourcePoint" />
            <mxPoint x="430" y="330" as="targetPoint" />
            <Array as="points">
              <mxPoint x="610" y="350" />
            </Array>
          </mxGeometry>
        </mxCell>
        <mxCell id="F1NleT-dJt74H9rhN13T-12" value="0,N" style="resizable=0;html=1;whiteSpace=wrap;align=right;verticalAlign=bottom;" parent="F1NleT-dJt74H9rhN13T-11" connectable="0" vertex="1">
          <mxGeometry x="1" relative="1" as="geometry" />
        </mxCell>
        <mxCell id="F1NleT-dJt74H9rhN13T-13" value="Atiende" style="shape=rhombus;perimeter=rhombusPerimeter;whiteSpace=wrap;html=1;align=center;" parent="1" vertex="1">
          <mxGeometry x="510" y="600" width="120" height="60" as="geometry" />
        </mxCell>
        <mxCell id="F1NleT-dJt74H9rhN13T-14" value="" style="endArrow=none;html=1;rounded=0;exitX=0.5;exitY=0;exitDx=0;exitDy=0;" parent="1" source="F1NleT-dJt74H9rhN13T-13" edge="1">
          <mxGeometry relative="1" as="geometry">
            <mxPoint x="330" y="540" as="sourcePoint" />
            <mxPoint x="570" y="450" as="targetPoint" />
          </mxGeometry>
        </mxCell>
        <mxCell id="F1NleT-dJt74H9rhN13T-15" value="1,1" style="resizable=0;html=1;whiteSpace=wrap;align=right;verticalAlign=bottom;" parent="F1NleT-dJt74H9rhN13T-14" connectable="0" vertex="1">
          <mxGeometry x="1" relative="1" as="geometry">
            <mxPoint x="-10" y="30" as="offset" />
          </mxGeometry>
        </mxCell>
        <mxCell id="F1NleT-dJt74H9rhN13T-16" value="Cita" style="rounded=1;arcSize=10;whiteSpace=wrap;html=1;align=center;" parent="1" vertex="1">
          <mxGeometry x="520" y="800" width="100" height="40" as="geometry" />
        </mxCell>
        <mxCell id="F1NleT-dJt74H9rhN13T-17" value="" style="endArrow=none;html=1;rounded=0;exitX=0.5;exitY=1;exitDx=0;exitDy=0;entryX=0.5;entryY=0;entryDx=0;entryDy=0;" parent="1" source="F1NleT-dJt74H9rhN13T-13" target="F1NleT-dJt74H9rhN13T-16" edge="1">
          <mxGeometry relative="1" as="geometry">
            <mxPoint x="530" y="730" as="sourcePoint" />
            <mxPoint x="560" y="790" as="targetPoint" />
          </mxGeometry>
        </mxCell>
        <mxCell id="F1NleT-dJt74H9rhN13T-18" value="4,0" style="resizable=0;html=1;whiteSpace=wrap;align=right;verticalAlign=bottom;" parent="F1NleT-dJt74H9rhN13T-17" connectable="0" vertex="1">
          <mxGeometry x="1" relative="1" as="geometry">
            <mxPoint y="-10" as="offset" />
          </mxGeometry>
        </mxCell>
        <mxCell id="F1NleT-dJt74H9rhN13T-29" value="Atiende" style="shape=rhombus;perimeter=rhombusPerimeter;whiteSpace=wrap;html=1;align=center;" parent="1" vertex="1">
          <mxGeometry x="510" y="940" width="120" height="60" as="geometry" />
        </mxCell>
        <mxCell id="F1NleT-dJt74H9rhN13T-30" value="Vehiculo" style="rounded=1;arcSize=10;whiteSpace=wrap;html=1;align=center;" parent="1" vertex="1">
          <mxGeometry x="520" y="1100" width="105" height="100" as="geometry" />
        </mxCell>
        <mxCell id="F1NleT-dJt74H9rhN13T-33" value="" style="endArrow=none;html=1;rounded=0;entryX=0.5;entryY=1;entryDx=0;entryDy=0;exitX=0.5;exitY=0;exitDx=0;exitDy=0;" parent="1" source="F1NleT-dJt74H9rhN13T-29" target="F1NleT-dJt74H9rhN13T-16" edge="1">
          <mxGeometry relative="1" as="geometry">
            <mxPoint x="430" y="910" as="sourcePoint" />
            <mxPoint x="590" y="910" as="targetPoint" />
          </mxGeometry>
        </mxCell>
        <mxCell id="F1NleT-dJt74H9rhN13T-34" value="0,1" style="resizable=0;html=1;whiteSpace=wrap;align=right;verticalAlign=bottom;" parent="F1NleT-dJt74H9rhN13T-33" connectable="0" vertex="1">
          <mxGeometry x="1" relative="1" as="geometry">
            <mxPoint x="-1" y="30" as="offset" />
          </mxGeometry>
        </mxCell>
        <mxCell id="F1NleT-dJt74H9rhN13T-40" value="Pertenece" style="shape=rhombus;perimeter=rhombusPerimeter;whiteSpace=wrap;html=1;align=center;" parent="1" vertex="1">
          <mxGeometry x="306" y="1120" width="116" height="60" as="geometry" />
        </mxCell>
        <mxCell id="F1NleT-dJt74H9rhN13T-41" value="" style="endArrow=none;html=1;rounded=0;entryX=0;entryY=0.5;entryDx=0;entryDy=0;exitX=1;exitY=0.5;exitDx=0;exitDy=0;" parent="1" source="F1NleT-dJt74H9rhN13T-40" target="F1NleT-dJt74H9rhN13T-30" edge="1">
          <mxGeometry relative="1" as="geometry">
            <mxPoint x="670" y="1280" as="sourcePoint" />
            <mxPoint x="830" y="1280" as="targetPoint" />
          </mxGeometry>
        </mxCell>
        <mxCell id="F1NleT-dJt74H9rhN13T-42" value="N" style="resizable=0;html=1;whiteSpace=wrap;align=right;verticalAlign=bottom;" parent="F1NleT-dJt74H9rhN13T-41" connectable="0" vertex="1">
          <mxGeometry x="1" relative="1" as="geometry">
            <mxPoint x="-15" as="offset" />
          </mxGeometry>
        </mxCell>
        <mxCell id="F1NleT-dJt74H9rhN13T-43" value="Propietario" style="rounded=1;arcSize=10;whiteSpace=wrap;html=1;align=center;" parent="1" vertex="1">
          <mxGeometry x="120" y="1130" width="100" height="40" as="geometry" />
        </mxCell>
        <mxCell id="F1NleT-dJt74H9rhN13T-44" value="" style="endArrow=none;html=1;rounded=0;exitX=1;exitY=0.5;exitDx=0;exitDy=0;entryX=0;entryY=0.5;entryDx=0;entryDy=0;" parent="1" source="F1NleT-dJt74H9rhN13T-43" target="F1NleT-dJt74H9rhN13T-40" edge="1">
          <mxGeometry relative="1" as="geometry">
            <mxPoint x="250" y="1180" as="sourcePoint" />
            <mxPoint x="250" y="1150" as="targetPoint" />
          </mxGeometry>
        </mxCell>
        <mxCell id="F1NleT-dJt74H9rhN13T-45" value="1" style="resizable=0;html=1;whiteSpace=wrap;align=right;verticalAlign=bottom;" parent="F1NleT-dJt74H9rhN13T-44" connectable="0" vertex="1">
          <mxGeometry x="1" relative="1" as="geometry">
            <mxPoint x="-66" as="offset" />
          </mxGeometry>
        </mxCell>
        <mxCell id="F1NleT-dJt74H9rhN13T-47" value="" style="triangle;whiteSpace=wrap;html=1;rotation=0;" parent="1" vertex="1">
          <mxGeometry x="625" y="1130" width="25" height="40" as="geometry" />
        </mxCell>
        <mxCell id="F1NleT-dJt74H9rhN13T-48" value="" style="triangle;whiteSpace=wrap;html=1;rotation=90;" parent="1" vertex="1">
          <mxGeometry x="555.53" y="1197.5" width="28.95" height="35.82" as="geometry" />
        </mxCell>
        <mxCell id="F1NleT-dJt74H9rhN13T-51" value="" style="endArrow=none;html=1;rounded=0;exitX=1;exitY=0.5;exitDx=0;exitDy=0;" parent="1" source="F1NleT-dJt74H9rhN13T-47" edge="1">
          <mxGeometry width="50" height="50" relative="1" as="geometry">
            <mxPoint x="705" y="1190" as="sourcePoint" />
            <mxPoint x="720" y="1150" as="targetPoint" />
          </mxGeometry>
        </mxCell>
        <mxCell id="F1NleT-dJt74H9rhN13T-52" value="" style="verticalLabelPosition=bottom;verticalAlign=top;html=1;shape=mxgraph.basic.arc;startAngle=0.8662212177054287;endAngle=0.1303387665525873;rotation=90;" parent="1" vertex="1">
          <mxGeometry x="610" y="1100" width="70" height="100" as="geometry" />
        </mxCell>
        <mxCell id="F1NleT-dJt74H9rhN13T-53" value="" style="endArrow=none;html=1;rounded=0;" parent="1" edge="1">
          <mxGeometry width="50" height="50" relative="1" as="geometry">
            <mxPoint x="570" y="1320" as="sourcePoint" />
            <mxPoint x="570" y="1230" as="targetPoint" />
          </mxGeometry>
        </mxCell>
        <mxCell id="F1NleT-dJt74H9rhN13T-54" value="" style="verticalLabelPosition=bottom;verticalAlign=top;html=1;shape=mxgraph.basic.arc;startAngle=0.8662212177054287;endAngle=0.1303387665525873;rotation=-180;" parent="1" vertex="1">
          <mxGeometry x="535" y="1180" width="70" height="100" as="geometry" />
        </mxCell>
        <mxCell id="F1NleT-dJt74H9rhN13T-56" value="Furgoneta" style="rounded=1;whiteSpace=wrap;html=1;" parent="1" vertex="1">
          <mxGeometry x="321" y="1400" width="86" height="30" as="geometry" />
        </mxCell>
        <mxCell id="F1NleT-dJt74H9rhN13T-58" value="Turismo" style="rounded=1;whiteSpace=wrap;html=1;" parent="1" vertex="1">
          <mxGeometry x="454" y="1400" width="86" height="30" as="geometry" />
        </mxCell>
        <mxCell id="F1NleT-dJt74H9rhN13T-59" value="Camion" style="rounded=1;whiteSpace=wrap;html=1;" parent="1" vertex="1">
          <mxGeometry x="589" y="1400" width="86" height="30" as="geometry" />
        </mxCell>
        <mxCell id="F1NleT-dJt74H9rhN13T-60" value="Motocicleta" style="rounded=1;whiteSpace=wrap;html=1;" parent="1" vertex="1">
          <mxGeometry x="720" y="1400" width="86" height="30" as="geometry" />
        </mxCell>
        <mxCell id="F1NleT-dJt74H9rhN13T-61" value="" style="endArrow=none;html=1;rounded=0;" parent="1" edge="1">
          <mxGeometry width="50" height="50" relative="1" as="geometry">
            <mxPoint x="370" y="1320" as="sourcePoint" />
            <mxPoint x="760" y="1320" as="targetPoint" />
          </mxGeometry>
        </mxCell>
        <mxCell id="F1NleT-dJt74H9rhN13T-63" value="" style="endArrow=none;html=1;rounded=0;" parent="1" edge="1">
          <mxGeometry width="50" height="50" relative="1" as="geometry">
            <mxPoint x="370" y="1400" as="sourcePoint" />
            <mxPoint x="370" y="1320" as="targetPoint" />
          </mxGeometry>
        </mxCell>
        <mxCell id="F1NleT-dJt74H9rhN13T-64" value="" style="endArrow=none;html=1;rounded=0;" parent="1" edge="1">
          <mxGeometry width="50" height="50" relative="1" as="geometry">
            <mxPoint x="500" y="1400" as="sourcePoint" />
            <mxPoint x="500" y="1320" as="targetPoint" />
          </mxGeometry>
        </mxCell>
        <mxCell id="F1NleT-dJt74H9rhN13T-65" value="" style="endArrow=none;html=1;rounded=0;exitX=0.463;exitY=-0.006;exitDx=0;exitDy=0;exitPerimeter=0;" parent="1" source="F1NleT-dJt74H9rhN13T-60" edge="1">
          <mxGeometry width="50" height="50" relative="1" as="geometry">
            <mxPoint x="762.96" y="1400" as="sourcePoint" />
            <mxPoint x="760" y="1320" as="targetPoint" />
          </mxGeometry>
        </mxCell>
        <mxCell id="F1NleT-dJt74H9rhN13T-66" value="" style="endArrow=none;html=1;rounded=0;" parent="1" edge="1">
          <mxGeometry width="50" height="50" relative="1" as="geometry">
            <mxPoint x="637.26" y="1400" as="sourcePoint" />
            <mxPoint x="637.26" y="1320" as="targetPoint" />
          </mxGeometry>
        </mxCell>
        <mxCell id="F1NleT-dJt74H9rhN13T-67" value="Electrico" style="rounded=1;whiteSpace=wrap;html=1;direction=east;" parent="1" vertex="1">
          <mxGeometry x="820" y="1010" width="86" height="30" as="geometry" />
        </mxCell>
        <mxCell id="F1NleT-dJt74H9rhN13T-68" value="Hibrido" style="rounded=1;whiteSpace=wrap;html=1;direction=east;" parent="1" vertex="1">
          <mxGeometry x="820" y="1110" width="86" height="30" as="geometry" />
        </mxCell>
        <mxCell id="F1NleT-dJt74H9rhN13T-69" value="Diesel" style="rounded=1;whiteSpace=wrap;html=1;direction=east;" parent="1" vertex="1">
          <mxGeometry x="820" y="1190" width="86" height="30" as="geometry" />
        </mxCell>
        <mxCell id="F1NleT-dJt74H9rhN13T-70" value="Gasolina" style="rounded=1;whiteSpace=wrap;html=1;direction=east;" parent="1" vertex="1">
          <mxGeometry x="820" y="1270" width="86" height="30" as="geometry" />
        </mxCell>
        <mxCell id="F1NleT-dJt74H9rhN13T-71" value="" style="endArrow=none;html=1;rounded=0;" parent="1" edge="1">
          <mxGeometry width="50" height="50" relative="1" as="geometry">
            <mxPoint x="720" y="1280" as="sourcePoint" />
            <mxPoint x="720" y="1020" as="targetPoint" />
          </mxGeometry>
        </mxCell>
        <mxCell id="F1NleT-dJt74H9rhN13T-72" value="" style="endArrow=none;html=1;rounded=0;" parent="1" edge="1">
          <mxGeometry width="50" height="50" relative="1" as="geometry">
            <mxPoint x="820" y="1020" as="sourcePoint" />
            <mxPoint x="720" y="1020" as="targetPoint" />
          </mxGeometry>
        </mxCell>
        <mxCell id="F1NleT-dJt74H9rhN13T-73" value="" style="endArrow=none;html=1;rounded=0;" parent="1" edge="1">
          <mxGeometry width="50" height="50" relative="1" as="geometry">
            <mxPoint x="720" y="1120" as="sourcePoint" />
            <mxPoint x="820" y="1120" as="targetPoint" />
          </mxGeometry>
        </mxCell>
        <mxCell id="F1NleT-dJt74H9rhN13T-74" value="" style="endArrow=none;html=1;rounded=0;exitX=-0.004;exitY=0.329;exitDx=0;exitDy=0;exitPerimeter=0;" parent="1" source="F1NleT-dJt74H9rhN13T-70" edge="1">
          <mxGeometry width="50" height="50" relative="1" as="geometry">
            <mxPoint x="800" y="1280" as="sourcePoint" />
            <mxPoint x="720" y="1280" as="targetPoint" />
          </mxGeometry>
        </mxCell>
        <mxCell id="F1NleT-dJt74H9rhN13T-75" value="" style="endArrow=none;html=1;rounded=0;" parent="1" edge="1">
          <mxGeometry width="50" height="50" relative="1" as="geometry">
            <mxPoint x="820" y="1200" as="sourcePoint" />
            <mxPoint x="720" y="1200" as="targetPoint" />
          </mxGeometry>
        </mxCell>
        <mxCell id="F1NleT-dJt74H9rhN13T-76" value="1:N" style="text;html=1;align=center;verticalAlign=middle;resizable=0;points=[];autosize=1;strokeColor=none;fillColor=none;" parent="1" vertex="1">
          <mxGeometry x="340" y="1088" width="40" height="30" as="geometry" />
        </mxCell>
        <mxCell id="F1NleT-dJt74H9rhN13T-77" value="" style="endArrow=none;html=1;rounded=0;exitX=0.5;exitY=1;exitDx=0;exitDy=0;entryX=0.469;entryY=0.001;entryDx=0;entryDy=0;entryPerimeter=0;" parent="1" source="F1NleT-dJt74H9rhN13T-29" target="F1NleT-dJt74H9rhN13T-30" edge="1">
          <mxGeometry relative="1" as="geometry">
            <mxPoint x="460" y="1000" as="sourcePoint" />
            <mxPoint x="560" y="1070" as="targetPoint" />
          </mxGeometry>
        </mxCell>
        <mxCell id="F1NleT-dJt74H9rhN13T-78" value="1,1" style="resizable=0;html=1;whiteSpace=wrap;align=right;verticalAlign=bottom;" parent="F1NleT-dJt74H9rhN13T-77" connectable="0" vertex="1">
          <mxGeometry x="1" relative="1" as="geometry" />
        </mxCell>
        <mxCell id="F1NleT-dJt74H9rhN13T-79" value="1:1" style="text;html=1;align=center;verticalAlign=middle;resizable=0;points=[];autosize=1;strokeColor=none;fillColor=none;" parent="1" vertex="1">
          <mxGeometry x="625" y="955" width="40" height="30" as="geometry" />
        </mxCell>
        <mxCell id="F1NleT-dJt74H9rhN13T-80" value="1:N" style="text;html=1;align=center;verticalAlign=middle;resizable=0;points=[];autosize=1;strokeColor=none;fillColor=none;" parent="1" vertex="1">
          <mxGeometry x="635" y="615" width="40" height="30" as="geometry" />
        </mxCell>
        <mxCell id="F1NleT-dJt74H9rhN13T-82" value="1:N" style="text;html=1;align=center;verticalAlign=middle;resizable=0;points=[];autosize=1;strokeColor=none;fillColor=none;" parent="1" vertex="1">
          <mxGeometry x="333.5" y="355" width="40" height="30" as="geometry" />
        </mxCell>
        <mxCell id="F1NleT-dJt74H9rhN13T-83" value="1:N" style="text;html=1;align=center;verticalAlign=middle;resizable=0;points=[];autosize=1;strokeColor=none;fillColor=none;" parent="1" vertex="1">
          <mxGeometry x="721" y="335" width="40" height="30" as="geometry" />
        </mxCell>
      </root>
    </mxGraphModel>
  </diagram>
</mxfile>
